HIERARCHY
ROOT hip
{
  OFFSET 0 0 0
  CHANNELS 6 Xposition Yposition Zposition Zrotation Yrotation Xrotation
  JOINT abdomen
  {
    OFFSET 0 20.6881 -0.73152
    CHANNELS 3 Zrotation Xrotation Yrotation
    JOINT chest
    {
      OFFSET 0 11.7043 -0.48768
      CHANNELS 3 Zrotation Xrotation Yrotation
      JOINT neck
      {
        OFFSET 0 22.1894 -2.19456
        CHANNELS 3 Zrotation Xrotation Yrotation
        JOINT head
        {
          OFFSET -0.24384 7.07133 1.2192
          CHANNELS 3 Zrotation Xrotation Yrotation
          JOINT leftEye
          {
            OFFSET 4.14528 8.04674 8.04672
            CHANNELS 3 Zrotation Xrotation Yrotation
            End Site
            {
              OFFSET 1 0 0
            }
          }
          JOINT rightEye
          {
            OFFSET -3.6576 8.04674 8.04672
            CHANNELS 3 Zrotation Xrotation Yrotation
            End Site
            {
              OFFSET 1 0 0
            }
          }
        }
      }
      JOINT rCollar
      {
        OFFSET -2.68224 19.2634 -4.8768
        CHANNELS 3 Zrotation Xrotation Yrotation
        JOINT rShldr
        {
          OFFSET -8.77824 -1.95073 1.46304
          CHANNELS 3 Zrotation Xrotation Yrotation
          JOINT rForeArm
          {
            OFFSET -28.1742 -1.7115 0.48768
            CHANNELS 3 Zrotation Xrotation Yrotation
            JOINT rHand
            {
              OFFSET -22.5879 0.773209 7.07136
              CHANNELS 3 Zrotation Xrotation Yrotation
              JOINT rThumb1
              {
                OFFSET -1.2192 -0.487915 3.41376
                CHANNELS 3 Zrotation Xrotation Yrotation
                JOINT rThumb2
                {
                  OFFSET -3.37035 -0.52449 3.41376
                  CHANNELS 3 Zrotation Xrotation Yrotation
                  End Site
                  {
                    OFFSET -1.78271 -1.18214 1.43049
                  }
                }
              }
              JOINT rIndex1
              {
                OFFSET -7.75947 0.938293 5.60832
                CHANNELS 3 Zrotation Xrotation Yrotation
                JOINT rIndex2
                {
                  OFFSET -2.54057 -0.884171 1.56538
                  CHANNELS 3 Zrotation Xrotation Yrotation
                  End Site
                  {
                    OFFSET -1.62519 -0.234802 1.16502
                  }
                }
              }
              JOINT rMid1
              {
                OFFSET -8.24714 1.18213 3.41376
                CHANNELS 3 Zrotation Xrotation Yrotation
                JOINT rMid2
                {
                  OFFSET -3.10165 -0.590103 1.0647
                  CHANNELS 3 Zrotation Xrotation Yrotation
                  End Site
                  {
                    OFFSET -2.48547 -0.328903 0.83742
                  }
                }
              }
              JOINT rRing1
              {
                OFFSET -8.82822 0.546677 1.51678
                CHANNELS 3 Zrotation Xrotation Yrotation
                JOINT rRing2
                {
                  OFFSET -2.60934 -0.819778 -0.0198488
                  CHANNELS 3 Zrotation Xrotation Yrotation
                  End Site
                  {
                    OFFSET -2.33842 -0.294052 0.168128
                  }
                }
              }
              JOINT rPinky1
              {
                OFFSET -8.27202 -0.0477905 -0.4584
                CHANNELS 3 Zrotation Xrotation Yrotation
                JOINT rPinky2
                {
                  OFFSET -1.82734 -0.647385 -0.700984
                  CHANNELS 3 Zrotation Xrotation Yrotation
                  End Site
                  {
                    OFFSET -1.69225 -0.51767 -0.607171
                  }
                }
              }
            }
          }
        }
      }
      JOINT lCollar
      {
        OFFSET 2.68224 19.2634 -4.8768
        CHANNELS 3 Zrotation Xrotation Yrotation
        JOINT lShldr
        {
          OFFSET 8.77824 -1.95073 1.46304
          CHANNELS 3 Zrotation Xrotation Yrotation
          JOINT lForeArm
          {
            OFFSET 28.1742 -1.7115 0.48768
            CHANNELS 3 Zrotation Xrotation Yrotation
            JOINT lHand
            {
              OFFSET 22.5879 0.773209 7.07136
              CHANNELS 3 Zrotation Xrotation Yrotation
              JOINT lThumb1
              {
                OFFSET 1.2192 -0.487915 3.41376
                CHANNELS 3 Zrotation Xrotation Yrotation
                JOINT lThumb2
                {
                  OFFSET 3.37035 -0.52449 3.41376
                  CHANNELS 3 Zrotation Xrotation Yrotation
                  End Site
                  {
                    OFFSET 1.78271 -1.18214 1.43049
                  }
                }
              }
              JOINT lIndex1
              {
                OFFSET 7.75947 0.938293 5.60832
                CHANNELS 3 Zrotation Xrotation Yrotation
                JOINT lIndex2
                {
                  OFFSET 2.54057 -0.884171 1.56538
                  CHANNELS 3 Zrotation Xrotation Yrotation
                  End Site
                  {
                    OFFSET 1.62519 -0.234802 1.16502
                  }
                }
              }
              JOINT lMid1
              {
                OFFSET 8.24714 1.18213 3.41376
                CHANNELS 3 Zrotation Xrotation Yrotation
                JOINT lMid2
                {
                  OFFSET 3.10165 -0.590103 1.0647
                  CHANNELS 3 Zrotation Xrotation Yrotation
                  End Site
                  {
                    OFFSET 2.48547 -0.328903 0.83742
                  }
                }
              }
              JOINT lRing1
              {
                OFFSET 8.82822 0.546677 1.51678
                CHANNELS 3 Zrotation Xrotation Yrotation
                JOINT lRing2
                {
                  OFFSET 2.60934 -0.819778 -0.0198488
                  CHANNELS 3 Zrotation Xrotation Yrotation
                  End Site
                  {
                    OFFSET 2.33842 -0.294052 0.168128
                  }
                }
              }
              JOINT lPinky1
              {
                OFFSET 8.27202 -0.0477905 -0.4584
                CHANNELS 3 Zrotation Xrotation Yrotation
                JOINT lPinky2
                {
                  OFFSET 1.82734 -0.647385 -0.700984
                  CHANNELS 3 Zrotation Xrotation Yrotation
                  End Site
                  {
                    OFFSET 1.69225 -0.51767 -0.607171
                  }
                }
              }
            }
          }
        }
      }
    }
  }
  JOINT rButtock
  {
    OFFSET -8.77824 4.35084 1.2192
    CHANNELS 3 Zrotation Xrotation Yrotation
    JOINT rThigh
    {
      OFFSET 0 -1.70687 -2.19456
      CHANNELS 3 Zrotation Xrotation Yrotation
      JOINT rShin
      {
        OFFSET 0 -36.8199 0.73152
        CHANNELS 3 Zrotation Xrotation Yrotation
        JOINT rFoot
        {
          OFFSET 0.73152 -45.1104 -5.12064
          CHANNELS 3 Zrotation Xrotation Yrotation
          End Site
          {
            OFFSET -1.1221 -3.69964 12.103
          }
        }
      }
    }
  }
  JOINT lButtock
  {
    OFFSET 8.77824 4.35084 1.2192
    CHANNELS 3 Zrotation Xrotation Yrotation
    JOINT lThigh
    {
      OFFSET 0 -1.70687 -2.19456
      CHANNELS 3 Zrotation Xrotation Yrotation
      JOINT lShin
      {
        OFFSET 0 -36.8199 0.73152
        CHANNELS 3 Zrotation Xrotation Yrotation
        JOINT lFoot
        {
          OFFSET -0.73152 -45.1104 -5.12064
          CHANNELS 3 Zrotation Xrotation Yrotation
          End Site
          {
            OFFSET 1.1221 -3.69964 12.103
          }
        }
      }
    }
  }
}
MOTION
Frames:	8
Frame Time:	0.00833333
103.72 85.2022 -88.2952 0.0 0.0 0.0 0.602243 -0.00285566 0.0171684 0.166047 -0.00431782 0.0287697 -4.41143e-15 7.95139e-16 -7.45442e-17 -1.31105e-14 9.54166e-15 -2.39163e-16 -0.0 0.0 0.0 -0.0 0.0 0.0 -2.188e-15 4.46489e-18 4.96962e-17 -4.37781e-14 2.11209e-16 0.0 -7.89026e-13 2.41722e-13 3.18055e-15 -9.04269e-12 -2.13246e-13 -1.74931e-13 -2.13285e-11 6.23247e-14 -3.72125e-13 -3.68416e-11 1.04958e-13 -6.44062e-13 -2.13205e-11 6.40087e-14 -3.78486e-13 7.73091 5.47488 0.417314 -2.1329e-11 6.22196e-14 -3.72125e-13 2.90554 0.965183 0.102902 -2.1321e-11 6.26172e-14 -3.76101e-13 10.2786 0.731801 0.0259123 -2.133e-11 6.44062e-14 -3.72125e-13 2.22167 -0.733487 -0.20892 -2.2848e-15 4.27076e-18 -1.49089e-16 -4.76885e-14 3.10601e-16 -1.98785e-15 -7.92058e-13 -2.30789e-13 -1.27222e-14 -9.04135e-12 2.64607e-13 -1.62208e-13 -2.13277e-11 7.03498e-14 -3.84847e-13 -3.68245e-11 1.145e-13 -6.52014e-13 -2.1334e-11 7.15625e-14 -3.75305e-13 -7.73091 5.47488 -0.417314 -2.1329e-11 7.09661e-14 -3.78486e-13 -2.90554 0.965183 -0.102902 -2.13362e-11 7.07673e-14 -3.77691e-13 -10.2786 0.731801 -0.0259123 -2.13264e-11 6.99722e-14 -3.84847e-13 -2.22167 -0.733487 0.20892 -2.03217e-16 0.0 -3.88251e-19 0.985424 -4.60218 -0.0812403 -0.00202222 2.78417 -0.00803734 -0.532601 1.81803 0.098223 2.03217e-16 0.0 3.88251e-19 -0.0701946 -2.29252 0.0218612 0.00846694 -1.39936 0.0723362 0.52621 3.69178 -0.136091
104.787 83.2591 -88.5559 4.6189 0.8971 -0.3896 -1.68974 0.981663 0.167694 0.662683 -0.111743 0.0296978 -1.06091 1.35958 -1.38261 1.01185 -4.18082 -2.41625 -0.0 0.0 0.0 -0.0 0.0 0.0 2.89366e-14 -1.65631e-15 -5.32293e-15 20.166 5.16896 5.97502 -5.5156 -2.83263 8.23101 0.0157643 -2.7866 -0.389962 -3.32429e-10 6.21664e-10 -1.14721e-10 -5.73373e-10 1.07041e-09 -2.00722e-10 -3.32422e-10 6.21668e-10 -1.1473e-10 7.73091 5.47488 0.417314 -3.32429e-10 6.21665e-10 -1.14721e-10 2.90554 0.965183 0.102902 -3.3242e-10 6.21665e-10 -1.14723e-10 10.2786 0.731801 0.0259123 -3.32429e-10 6.21665e-10 -1.14719e-10 2.22167 -0.733487 -0.20892 2.8827e-14 -1.6564e-15 -5.58305e-15 -23.0389 -2.20761 1.75639 1.71521 -0.565491 -2.86763 -0.0296554 3.96464 -0.552844 -5.21492e-10 9.05212e-11 -1.4497e-10 -9.02895e-10 1.55868e-10 -2.44574e-10 -5.21498e-10 9.0523e-11 -1.4496e-10 -7.73091 5.47488 -0.417314 -5.21493e-10 9.05215e-11 -1.44964e-10 -2.90554 0.965183 -0.102902 -5.215e-10 9.05213e-11 -1.44965e-10 -10.2786 0.731801 -0.0259123 -5.21489e-10 9.05212e-11 -1.44973e-10 -2.22167 -0.733487 0.20892 -2.03217e-16 0.0 -3.88251e-19 -1.95413 -13.8885 -1.01026 -0.0284687 22.6016 0.259804 -0.584719 1.8218 -0.380009 2.03217e-16 0.0 3.88251e-19 -3.08839 -6.03541 -0.584901 -0.00724168 7.27769 -0.0512352 0.48788 -0.529779 -0.414113
104.906 83.2113 -87.6774 5.0852 1.1386 -0.333 -4.10528 2.03902 0.383202 1.18305 -0.212743 0.0457322 -2.16831 2.73075 -2.87116 1.7348 -8.53618 -5.04648 -0.0 0.0 0.0 -0.0 0.0 0.0 6.348e-14 -3.49575e-15 -1.07903e-14 40.2445 10.3739 12.5488 -10.4804 -5.64043 17.0105 -0.00903671 -5.74036 -0.806458 -6.81306e-10 1.31652e-09 -2.40879e-10 -1.17508e-09 2.2669e-09 -4.21501e-10 -6.81301e-10 1.31653e-09 -2.40892e-10 7.73091 5.47488 0.417314 -6.81308e-10 1.31652e-09 -2.4088e-10 2.90554 0.965183 0.102902 -6.81296e-10 1.31653e-09 -2.4088e-10 10.2786 0.731801 0.0259123 -6.81306e-10 1.31652e-09 -2.40875e-10 2.22167 -0.733487 -0.20892 6.3355e-14 -3.49575e-15 -1.11195e-14 -47.2596 -4.63696 3.63595 3.43254 -1.14243 -5.844 0.0250535 8.27657 -1.16357 -1.07302e-09 1.79127e-10 -3.01459e-10 -1.85788e-09 3.08339e-10 -5.08438e-10 -1.07302e-09 1.7913e-10 -3.01448e-10 -7.73091 5.47488 -0.417314 -1.07302e-09 1.79127e-10 -3.01454e-10 -2.90554 0.965183 -0.102902 -1.07303e-09 1.79127e-10 -3.01457e-10 -10.2786 0.731801 -0.0259123 -1.07301e-09 1.79128e-10 -3.01465e-10 -2.22167 -0.733487 0.20892 -2.03217e-16 0.0 -3.88251e-19 -5.42668 -23.6341 -2.12322 -0.329067 43.6065 0.69398 -0.638271 1.85801 -0.875905 2.03217e-16 0.0 3.88251e-19 -6.36826 -10.0233 -1.24021 0.0185407 16.4536 -0.187519 0.401558 -4.96361 -0.718115
105.008 83.1429 -86.7963 5.4653 1.3939 -0.3471 -6.28924 2.95061 0.469293 1.65596 -0.326594 0.0315543 -2.98565 4.06924 -4.15717 1.9592 -12.4522 -7.40456 -0.0 0.0 0.0 -0.0 0.0 0.0 9.11858e-14 -4.97785e-15 -1.60682e-14 57.2294 14.8228 18.4883 -14.1704 -7.79784 24.9084 -0.0675342 -8.35825 -1.18105 -9.54629e-10 1.86487e-09 -3.43417e-10 -1.64643e-09 3.21102e-09 -6.00878e-10 -9.54625e-10 1.86488e-09 -3.43434e-10 7.73091 5.47488 0.417314 -9.5463e-10 1.86487e-09 -3.4342e-10 2.90554 0.965183 0.102902 -9.54617e-10 1.86487e-09 -3.43418e-10 10.2786 0.731801 0.0259123 -9.54628e-10 1.86487e-09 -3.43412e-10 2.22167 -0.733487 -0.20892 9.10506e-14 -4.97775e-15 -1.6451e-14 -68.709 -6.59787 5.30048 4.97647 -1.67949 -8.60618 0.14481 11.8895 -1.69085 -1.52182e-09 2.71423e-10 -4.3414e-10 -2.63504e-09 4.67375e-10 -7.32418e-10 -1.52182e-09 2.71426e-10 -4.34128e-10 -7.73091 5.47488 -0.417314 -1.52182e-09 2.71423e-10 -4.34136e-10 -2.90554 0.965183 -0.102902 -1.52183e-09 2.71422e-10 -4.3414e-10 -10.2786 0.731801 -0.0259123 -1.52182e-09 2.71424e-10 -4.34149e-10 -2.22167 -0.733487 0.20892 -2.03217e-16 0.0 -3.88251e-19 -8.88642 -32.4244 -3.29422 -1.17812 62.2282 1.57888 -0.688769 1.82894 -1.33648 2.03217e-16 0.0 3.88251e-19 -9.3686 -13.5154 -1.83962 0.0816231 24.6314 -0.326837 0.28697 -8.97167 -0.982694
105.082 83.0684 -85.9518 5.7063 1.669 -0.3111 -7.87428 3.49796 0.230865 2.00985 -0.47257 -0.0581566 -3.20883 5.33491 -4.92961 1.71028 -15.3593 -8.93604 -0.0 0.0 0.0 -0.0 0.0 0.0 1.01798e-13 -5.56655e-15 -2.08724e-14 68.8052 18.063 22.3226 -16.34 -9.00707 30.3938 -0.127739 -10.138 -1.44001 -1.03906e-09 2.04693e-09 -3.86908e-10 -1.79192e-09 3.52425e-09 -6.7675e-10 -1.03906e-09 2.04694e-09 -3.86927e-10 7.73091 5.47488 0.417314 -1.03906e-09 2.04693e-09 -3.86911e-10 2.90554 0.965183 0.102902 -1.03905e-09 2.04693e-09 -3.86908e-10 10.2786 0.731801 0.0259123 -1.03906e-09 2.04693e-09 -3.86902e-10 2.22167 -0.733487 -0.20892 1.01665e-13 -5.56636e-15 -2.127e-14 -83.5536 -7.41489 6.39089 6.19244 -2.13021 -10.8303 0.237993 13.7599 -1.97227 -1.71381e-09 3.72942e-10 -5.07302e-10 -2.96764e-09 6.42825e-10 -8.56689e-10 -1.71381e-09 3.72945e-10 -5.07289e-10 -7.73091 5.47488 -0.417314 -1.71381e-09 3.72941e-10 -5.07298e-10 -2.90554 0.965183 -0.102902 -1.71382e-09 3.72941e-10 -5.07302e-10 -10.2786 0.731801 -0.0259123 -1.71381e-09 3.72943e-10 -5.07311e-10 -2.22167 -0.733487 0.20892 -2.03217e-16 0.0 -3.88251e-19 -11.5191 -38.8618 -4.2298 -3.05093 74.894 3.43566 -0.734581 1.63695 -1.70866 2.03217e-16 0.0 3.88251e-19 -11.4912 -15.7733 -2.26061 0.152496 30.3142 -0.445922 0.193711 -11.9166 -1.13519
105.073 83.0465 -85.1486 5.629 1.7461 -0.0967 -8.59721 3.51213 -0.450388 2.19154 -0.664511 -0.249889 -2.66176 6.52957 -4.97214 1.16354 -16.9231 -9.20328 -0.0 0.0 0.0 -0.0 0.0 0.0 8.53748e-14 -4.8789e-15 -2.67257e-14 73.8776 20.1196 22.8763 -17.046 -9.34609 32.3887 -0.153869 -10.7674 -1.53271 -8.05562e-10 1.62624e-09 -3.46417e-10 -1.38874e-09 2.79899e-09 -6.05142e-10 -8.05556e-10 1.62624e-09 -3.46437e-10 7.73091 5.47488 0.417314 -8.05564e-10 1.62624e-09 -3.46421e-10 2.90554 0.965183 0.102902 -8.05552e-10 1.62624e-09 -3.46417e-10 10.2786 0.731801 0.0259123 -8.05562e-10 1.62624e-09 -3.46411e-10 2.22167 -0.733487 -0.20892 8.52704e-14 -4.87856e-15 -2.70697e-14 -89.3538 -6.40772 6.78807 7.06957 -2.50668 -12.4342 0.210642 12.997 -1.85821 -1.51759e-09 5.20608e-10 -4.92596e-10 -2.62831e-09 8.9886e-10 -8.33945e-10 -1.51759e-09 5.20611e-10 -4.92582e-10 -7.73091 5.47488 -0.417314 -1.51759e-09 5.20608e-10 -4.92593e-10 -2.90554 0.965183 -0.102902 -1.51759e-09 5.20607e-10 -4.92595e-10 -10.2786 0.731801 -0.0259123 -1.51758e-09 5.2061e-10 -4.92602e-10 -2.22167 -0.733487 0.20892 -2.03217e-16 0.0 -3.88251e-19 -12.4891 -42.0658 -4.51356 -4.74567 79.2751 5.11785 -0.775947 1.2147 -1.94913 2.03217e-16 0.0 3.88251e-19 -12.2945 -16.3227 -2.40719 0.187765 32.5496 -0.513888 0.185661 -13.4172 -1.07622
105.074 83.0491 -84.3025 5.6318 1.7589 0.0844 -8.71771 3.14585 -1.44779 2.24904 -0.889218 -0.514693 -1.59739 7.67519 -4.49062 0.498303 -17.5434 -8.53272 -0.0 0.0 0.0 -0.0 0.0 0.0 4.97895e-14 -3.28077e-15 -3.32467e-14 74.6112 21.4557 20.9675 -16.8368 -9.18525 31.8688 -0.147477 -10.5743 -1.50444 -3.47513e-10 7.79291e-10 -2.46002e-10 -5.9806e-10 1.33935e-09 -4.28313e-10 -3.47504e-10 7.79291e-10 -2.46022e-10 7.73091 5.47488 0.417314 -3.47516e-10 7.79294e-10 -2.46006e-10 2.90554 0.965183 0.102902 -3.47507e-10 7.79294e-10 -2.46001e-10 10.2786 0.731801 0.0259123 -3.47515e-10 7.79292e-10 -2.45997e-10 2.22167 -0.733487 -0.20892 4.97304e-14 -3.28027e-15 -3.3489e-14 -88.7 -4.11135 6.69056 7.70839 -2.82998 -13.5883 0.117388 10.3616 -1.46928 -1.04544e-09 6.99654e-10 -4.15343e-10 -1.81139e-09 1.20971e-09 -7.06545e-10 -1.04544e-09 6.99656e-10 -4.15328e-10 -7.73091 5.47488 -0.417314 -1.04543e-09 6.99654e-10 -4.15342e-10 -2.90554 0.965183 -0.102902 -1.04544e-09 6.99654e-10 -4.1534e-10 -10.2786 0.731801 -0.0259123 -1.04543e-09 6.99657e-10 -4.15344e-10 -2.22167 -0.733487 0.20892 -2.03217e-16 0.0 -3.88251e-19 -12.1187 -42.9668 -4.21205 -4.03057 77.7586 4.40893 -0.815254 0.628145 -2.09605 2.03217e-16 0.0 3.88251e-19 -12.1392 -15.6519 -2.35192 0.183103 32.3205 -0.536055 0.248869 -13.8841 -0.86458
105.117 83.0422 -83.3714 5.8196 1.8433 0.1299 -8.64558 2.66353 -2.58977 2.26258 -1.1254 -0.814737 -0.355227 8.76317 -3.80613 -0.210302 -17.7736 -7.4852 -0.0 0.0 0.0 -0.0 0.0 0.0 1.15037e-14 -1.35945e-15 -3.72954e-14 73.6762 22.4377 18.0276 -16.2526 -8.81703 30.3512 -0.127704 -10.0171 -1.42284 1.14772e-10 -9.42318e-11 -1.23721e-10 1.99707e-10 -1.65681e-10 -2.13516e-10 1.14785e-10 -9.42356e-11 -1.2374e-10 7.73091 5.47488 0.417314 1.1477e-10 -9.42285e-11 -1.23724e-10 2.90554 0.965183 0.102902 1.14775e-10 -9.4229e-11 -1.23719e-10 10.2786 0.731801 0.0259123 1.14769e-10 -9.42295e-11 -1.23717e-10 2.22167 -0.733487 -0.20892 1.14862e-14 -1.35884e-15 -3.74391e-14 -85.3098 -1.67865 6.19834 8.13255 -3.07213 -14.3474 0.0512853 7.2909 -1.02793 -5.08794e-10 8.38075e-10 -3.20336e-10 -8.82707e-10 1.45032e-09 -5.49156e-10 -5.08796e-10 8.38077e-10 -3.2032e-10 -7.73091 5.47488 -0.417314 -5.08792e-10 8.38077e-10 -3.20335e-10 -2.90554 0.965183 -0.102902 -5.08803e-10 8.38077e-10 -3.2033e-10 -10.2786 0.731801 -0.0259123 -5.08793e-10 8.38079e-10 -3.20332e-10 -2.22167 -0.733487 0.20892 -2.03217e-16 0.0 -3.88251e-19 -11.2401 -42.8929 -3.66972 -2.79248 73.8175 3.18256 -0.855139 -0.0202764 -2.21851 2.03217e-16 0.0 3.88251e-19 -11.618 -14.468 -2.21633 0.160064 31.0331 -0.535716 0.318594 -13.8683 -0.661906
